<mxfile host="app.diagrams.net" agent="Mozilla/5.0 (Windows NT 10.0; Win64; x64) AppleWebKit/537.36 (KHTML, like Gecko) Chrome/131.0.0.0 Safari/537.36 Edg/131.0.0.0" version="25.0.3">
  <diagram id="C5RBs43oDa-KdzZeNtuy" name="Page-1">
    <mxGraphModel dx="464" dy="945" grid="1" gridSize="10" guides="1" tooltips="1" connect="1" arrows="1" fold="1" page="1" pageScale="1" pageWidth="827" pageHeight="1169" math="0" shadow="0">
      <root>
        <mxCell id="WIyWlLk6GJQsqaUBKTNV-0" />
        <mxCell id="WIyWlLk6GJQsqaUBKTNV-1" parent="WIyWlLk6GJQsqaUBKTNV-0" />
        <mxCell id="mYVZcuBY4w7BiPZU_aZP-5" value="" style="edgeStyle=none;curved=1;rounded=0;orthogonalLoop=1;jettySize=auto;html=1;fontSize=12;startSize=8;endSize=8;" edge="1" parent="WIyWlLk6GJQsqaUBKTNV-1" source="mYVZcuBY4w7BiPZU_aZP-0" target="mYVZcuBY4w7BiPZU_aZP-2">
          <mxGeometry relative="1" as="geometry" />
        </mxCell>
        <mxCell id="mYVZcuBY4w7BiPZU_aZP-0" value="Merge&lt;div&gt;Начало&lt;/div&gt;" style="strokeWidth=2;html=1;shape=mxgraph.flowchart.terminator;whiteSpace=wrap;" vertex="1" parent="WIyWlLk6GJQsqaUBKTNV-1">
          <mxGeometry x="160" y="40" width="200" height="80" as="geometry" />
        </mxCell>
        <mxCell id="mYVZcuBY4w7BiPZU_aZP-1" style="edgeStyle=none;curved=1;rounded=0;orthogonalLoop=1;jettySize=auto;html=1;entryX=0.5;entryY=0;entryDx=0;entryDy=0;fontSize=12;startSize=8;endSize=8;" edge="1" parent="WIyWlLk6GJQsqaUBKTNV-1" source="mYVZcuBY4w7BiPZU_aZP-2" target="mYVZcuBY4w7BiPZU_aZP-3">
          <mxGeometry relative="1" as="geometry" />
        </mxCell>
        <mxCell id="mYVZcuBY4w7BiPZU_aZP-2" value="data, left, mid, right,&lt;div&gt;i, j, k, n1, b2, L, R&amp;nbsp;&lt;/div&gt;" style="shape=parallelogram;perimeter=parallelogramPerimeter;whiteSpace=wrap;html=1;fixedSize=1;" vertex="1" parent="WIyWlLk6GJQsqaUBKTNV-1">
          <mxGeometry x="160" y="160" width="200" height="80" as="geometry" />
        </mxCell>
        <mxCell id="mYVZcuBY4w7BiPZU_aZP-12" style="edgeStyle=none;curved=1;rounded=0;orthogonalLoop=1;jettySize=auto;html=1;fontSize=12;startSize=8;endSize=8;" edge="1" parent="WIyWlLk6GJQsqaUBKTNV-1" source="mYVZcuBY4w7BiPZU_aZP-3" target="mYVZcuBY4w7BiPZU_aZP-9">
          <mxGeometry relative="1" as="geometry" />
        </mxCell>
        <mxCell id="mYVZcuBY4w7BiPZU_aZP-3" value="" style="shape=process;whiteSpace=wrap;html=1;backgroundOutline=1;" vertex="1" parent="WIyWlLk6GJQsqaUBKTNV-1">
          <mxGeometry x="160" y="280" width="200" height="80" as="geometry" />
        </mxCell>
        <mxCell id="mYVZcuBY4w7BiPZU_aZP-4" value="comparator" style="text;html=1;align=center;verticalAlign=middle;whiteSpace=wrap;rounded=0;fontSize=16;" vertex="1" parent="WIyWlLk6GJQsqaUBKTNV-1">
          <mxGeometry x="230" y="305" width="60" height="30" as="geometry" />
        </mxCell>
        <mxCell id="mYVZcuBY4w7BiPZU_aZP-6" value="" style="endArrow=none;dashed=1;html=1;rounded=0;fontSize=12;startSize=8;endSize=8;curved=1;entryX=1;entryY=0.5;entryDx=0;entryDy=0;" edge="1" parent="WIyWlLk6GJQsqaUBKTNV-1">
          <mxGeometry width="50" height="50" relative="1" as="geometry">
            <mxPoint x="400" y="200" as="sourcePoint" />
            <mxPoint x="350" y="200" as="targetPoint" />
          </mxGeometry>
        </mxCell>
        <mxCell id="mYVZcuBY4w7BiPZU_aZP-7" value="" style="strokeWidth=2;html=1;shape=mxgraph.flowchart.annotation_2;align=left;labelPosition=right;pointerEvents=1;" vertex="1" parent="WIyWlLk6GJQsqaUBKTNV-1">
          <mxGeometry x="390" y="150" width="50" height="100" as="geometry" />
        </mxCell>
        <mxCell id="mYVZcuBY4w7BiPZU_aZP-8" value="&lt;div style=&quot;&quot;&gt;&lt;span style=&quot;background-color: initial;&quot;&gt;data - переменная для хранения данных, по ссылке&lt;/span&gt;&lt;/div&gt;&lt;div&gt;left, mid, right - переменные для сортировки, по значению&lt;/div&gt;" style="text;html=1;align=left;verticalAlign=middle;whiteSpace=wrap;rounded=0;fontSize=16;" vertex="1" parent="WIyWlLk6GJQsqaUBKTNV-1">
          <mxGeometry x="420" y="150" width="260" height="100" as="geometry" />
        </mxCell>
        <mxCell id="mYVZcuBY4w7BiPZU_aZP-13" value="" style="edgeStyle=none;curved=1;rounded=0;orthogonalLoop=1;jettySize=auto;html=1;fontSize=12;startSize=8;endSize=8;" edge="1" parent="WIyWlLk6GJQsqaUBKTNV-1" source="mYVZcuBY4w7BiPZU_aZP-9" target="mYVZcuBY4w7BiPZU_aZP-10">
          <mxGeometry relative="1" as="geometry" />
        </mxCell>
        <mxCell id="mYVZcuBY4w7BiPZU_aZP-9" value="&lt;div&gt;n1 := mid - left + 1&lt;/div&gt;&lt;div&gt;&lt;span style=&quot;background-color: initial;&quot;&gt;n2 := right - mid&lt;/span&gt;&lt;/div&gt;" style="rounded=0;whiteSpace=wrap;html=1;" vertex="1" parent="WIyWlLk6GJQsqaUBKTNV-1">
          <mxGeometry x="160" y="400" width="200" height="80" as="geometry" />
        </mxCell>
        <mxCell id="mYVZcuBY4w7BiPZU_aZP-14" value="" style="edgeStyle=none;curved=1;rounded=0;orthogonalLoop=1;jettySize=auto;html=1;fontSize=12;startSize=8;endSize=8;" edge="1" parent="WIyWlLk6GJQsqaUBKTNV-1" source="mYVZcuBY4w7BiPZU_aZP-10" target="mYVZcuBY4w7BiPZU_aZP-11">
          <mxGeometry relative="1" as="geometry" />
        </mxCell>
        <mxCell id="mYVZcuBY4w7BiPZU_aZP-10" value="&lt;div&gt;SetLength(L, n1)&lt;/div&gt;&lt;div&gt;&lt;span style=&quot;background-color: initial;&quot;&gt;SetLength(R, n2)&lt;/span&gt;&lt;/div&gt;" style="rounded=0;whiteSpace=wrap;html=1;" vertex="1" parent="WIyWlLk6GJQsqaUBKTNV-1">
          <mxGeometry x="160" y="520" width="200" height="80" as="geometry" />
        </mxCell>
        <mxCell id="mYVZcuBY4w7BiPZU_aZP-16" value="" style="edgeStyle=none;curved=1;rounded=0;orthogonalLoop=1;jettySize=auto;html=1;fontSize=12;startSize=8;endSize=8;" edge="1" parent="WIyWlLk6GJQsqaUBKTNV-1" source="mYVZcuBY4w7BiPZU_aZP-11" target="mYVZcuBY4w7BiPZU_aZP-15">
          <mxGeometry relative="1" as="geometry" />
        </mxCell>
        <mxCell id="mYVZcuBY4w7BiPZU_aZP-11" value="i = 0" style="rounded=0;whiteSpace=wrap;html=1;" vertex="1" parent="WIyWlLk6GJQsqaUBKTNV-1">
          <mxGeometry x="160" y="640" width="200" height="80" as="geometry" />
        </mxCell>
        <mxCell id="mYVZcuBY4w7BiPZU_aZP-18" value="" style="edgeStyle=none;curved=1;rounded=0;orthogonalLoop=1;jettySize=auto;html=1;fontSize=12;startSize=8;endSize=8;" edge="1" parent="WIyWlLk6GJQsqaUBKTNV-1" source="mYVZcuBY4w7BiPZU_aZP-15" target="mYVZcuBY4w7BiPZU_aZP-17">
          <mxGeometry relative="1" as="geometry" />
        </mxCell>
        <mxCell id="mYVZcuBY4w7BiPZU_aZP-15" value="Цикл 1&lt;div&gt;i &amp;gt; n1 - 1&lt;/div&gt;" style="strokeWidth=2;html=1;shape=mxgraph.flowchart.loop_limit;whiteSpace=wrap;" vertex="1" parent="WIyWlLk6GJQsqaUBKTNV-1">
          <mxGeometry x="160" y="760" width="200" height="80" as="geometry" />
        </mxCell>
        <mxCell id="mYVZcuBY4w7BiPZU_aZP-20" value="" style="edgeStyle=none;curved=1;rounded=0;orthogonalLoop=1;jettySize=auto;html=1;fontSize=12;startSize=8;endSize=8;" edge="1" parent="WIyWlLk6GJQsqaUBKTNV-1" source="mYVZcuBY4w7BiPZU_aZP-17" target="mYVZcuBY4w7BiPZU_aZP-19">
          <mxGeometry relative="1" as="geometry" />
        </mxCell>
        <mxCell id="mYVZcuBY4w7BiPZU_aZP-17" value="L[i] := data[left + i]" style="rounded=0;whiteSpace=wrap;html=1;" vertex="1" parent="WIyWlLk6GJQsqaUBKTNV-1">
          <mxGeometry x="160" y="880" width="200" height="80" as="geometry" />
        </mxCell>
        <mxCell id="mYVZcuBY4w7BiPZU_aZP-22" value="" style="edgeStyle=none;curved=1;rounded=0;orthogonalLoop=1;jettySize=auto;html=1;fontSize=12;startSize=8;endSize=8;" edge="1" parent="WIyWlLk6GJQsqaUBKTNV-1" source="mYVZcuBY4w7BiPZU_aZP-19" target="mYVZcuBY4w7BiPZU_aZP-21">
          <mxGeometry relative="1" as="geometry" />
        </mxCell>
        <mxCell id="mYVZcuBY4w7BiPZU_aZP-19" value="i = i + 1" style="rounded=0;whiteSpace=wrap;html=1;" vertex="1" parent="WIyWlLk6GJQsqaUBKTNV-1">
          <mxGeometry x="160" y="1000" width="200" height="80" as="geometry" />
        </mxCell>
        <mxCell id="mYVZcuBY4w7BiPZU_aZP-31" value="" style="edgeStyle=none;curved=1;rounded=0;orthogonalLoop=1;jettySize=auto;html=1;fontSize=12;startSize=8;endSize=8;" edge="1" parent="WIyWlLk6GJQsqaUBKTNV-1" source="mYVZcuBY4w7BiPZU_aZP-21" target="mYVZcuBY4w7BiPZU_aZP-30">
          <mxGeometry relative="1" as="geometry" />
        </mxCell>
        <mxCell id="mYVZcuBY4w7BiPZU_aZP-21" value="Цикл 1" style="strokeWidth=2;html=1;shape=mxgraph.flowchart.loop_limit;whiteSpace=wrap;direction=west;" vertex="1" parent="WIyWlLk6GJQsqaUBKTNV-1">
          <mxGeometry x="160" y="1120" width="200" height="80" as="geometry" />
        </mxCell>
        <mxCell id="mYVZcuBY4w7BiPZU_aZP-23" value="" style="edgeStyle=none;curved=1;rounded=0;orthogonalLoop=1;jettySize=auto;html=1;fontSize=12;startSize=8;endSize=8;" edge="1" parent="WIyWlLk6GJQsqaUBKTNV-1" source="mYVZcuBY4w7BiPZU_aZP-24" target="mYVZcuBY4w7BiPZU_aZP-26">
          <mxGeometry relative="1" as="geometry" />
        </mxCell>
        <mxCell id="mYVZcuBY4w7BiPZU_aZP-24" value="Цикл 2&lt;div&gt;j &amp;gt; n2 - 1&lt;/div&gt;" style="strokeWidth=2;html=1;shape=mxgraph.flowchart.loop_limit;whiteSpace=wrap;" vertex="1" parent="WIyWlLk6GJQsqaUBKTNV-1">
          <mxGeometry x="160" y="1360" width="200" height="80" as="geometry" />
        </mxCell>
        <mxCell id="mYVZcuBY4w7BiPZU_aZP-25" value="" style="edgeStyle=none;curved=1;rounded=0;orthogonalLoop=1;jettySize=auto;html=1;fontSize=12;startSize=8;endSize=8;" edge="1" parent="WIyWlLk6GJQsqaUBKTNV-1" source="mYVZcuBY4w7BiPZU_aZP-26" target="mYVZcuBY4w7BiPZU_aZP-28">
          <mxGeometry relative="1" as="geometry" />
        </mxCell>
        <mxCell id="mYVZcuBY4w7BiPZU_aZP-26" value="R[j] := data[mid + 1 + j]" style="rounded=0;whiteSpace=wrap;html=1;" vertex="1" parent="WIyWlLk6GJQsqaUBKTNV-1">
          <mxGeometry x="160" y="1480" width="200" height="80" as="geometry" />
        </mxCell>
        <mxCell id="mYVZcuBY4w7BiPZU_aZP-27" value="" style="edgeStyle=none;curved=1;rounded=0;orthogonalLoop=1;jettySize=auto;html=1;fontSize=12;startSize=8;endSize=8;" edge="1" parent="WIyWlLk6GJQsqaUBKTNV-1" source="mYVZcuBY4w7BiPZU_aZP-28" target="mYVZcuBY4w7BiPZU_aZP-29">
          <mxGeometry relative="1" as="geometry" />
        </mxCell>
        <mxCell id="mYVZcuBY4w7BiPZU_aZP-28" value="j = j + 1" style="rounded=0;whiteSpace=wrap;html=1;" vertex="1" parent="WIyWlLk6GJQsqaUBKTNV-1">
          <mxGeometry x="160" y="1600" width="200" height="80" as="geometry" />
        </mxCell>
        <mxCell id="mYVZcuBY4w7BiPZU_aZP-34" value="" style="edgeStyle=none;curved=1;rounded=0;orthogonalLoop=1;jettySize=auto;html=1;fontSize=12;startSize=8;endSize=8;" edge="1" parent="WIyWlLk6GJQsqaUBKTNV-1" source="mYVZcuBY4w7BiPZU_aZP-29" target="mYVZcuBY4w7BiPZU_aZP-33">
          <mxGeometry relative="1" as="geometry" />
        </mxCell>
        <mxCell id="mYVZcuBY4w7BiPZU_aZP-29" value="Цикл 2" style="strokeWidth=2;html=1;shape=mxgraph.flowchart.loop_limit;whiteSpace=wrap;direction=west;" vertex="1" parent="WIyWlLk6GJQsqaUBKTNV-1">
          <mxGeometry x="160" y="1720" width="200" height="80" as="geometry" />
        </mxCell>
        <mxCell id="mYVZcuBY4w7BiPZU_aZP-32" value="" style="edgeStyle=none;curved=1;rounded=0;orthogonalLoop=1;jettySize=auto;html=1;fontSize=12;startSize=8;endSize=8;" edge="1" parent="WIyWlLk6GJQsqaUBKTNV-1" source="mYVZcuBY4w7BiPZU_aZP-30" target="mYVZcuBY4w7BiPZU_aZP-24">
          <mxGeometry relative="1" as="geometry" />
        </mxCell>
        <mxCell id="mYVZcuBY4w7BiPZU_aZP-30" value="j = 0" style="rounded=0;whiteSpace=wrap;html=1;" vertex="1" parent="WIyWlLk6GJQsqaUBKTNV-1">
          <mxGeometry x="160" y="1240" width="200" height="80" as="geometry" />
        </mxCell>
        <mxCell id="mYVZcuBY4w7BiPZU_aZP-36" value="" style="edgeStyle=none;curved=1;rounded=0;orthogonalLoop=1;jettySize=auto;html=1;fontSize=12;startSize=8;endSize=8;" edge="1" parent="WIyWlLk6GJQsqaUBKTNV-1" source="mYVZcuBY4w7BiPZU_aZP-33" target="mYVZcuBY4w7BiPZU_aZP-35">
          <mxGeometry relative="1" as="geometry" />
        </mxCell>
        <mxCell id="mYVZcuBY4w7BiPZU_aZP-33" value="&lt;div&gt;i := 0&lt;/div&gt;&lt;div&gt;&lt;span style=&quot;background-color: initial;&quot;&gt;j := 0&lt;/span&gt;&lt;/div&gt;&lt;div&gt;&lt;span style=&quot;background-color: initial;&quot;&gt;k := left&lt;/span&gt;&lt;/div&gt;" style="rounded=0;whiteSpace=wrap;html=1;" vertex="1" parent="WIyWlLk6GJQsqaUBKTNV-1">
          <mxGeometry x="160" y="1840" width="200" height="80" as="geometry" />
        </mxCell>
        <mxCell id="mYVZcuBY4w7BiPZU_aZP-38" value="" style="edgeStyle=none;curved=1;rounded=0;orthogonalLoop=1;jettySize=auto;html=1;fontSize=12;startSize=8;endSize=8;" edge="1" parent="WIyWlLk6GJQsqaUBKTNV-1" source="mYVZcuBY4w7BiPZU_aZP-35" target="mYVZcuBY4w7BiPZU_aZP-37">
          <mxGeometry relative="1" as="geometry" />
        </mxCell>
        <mxCell id="mYVZcuBY4w7BiPZU_aZP-35" value="Цикл 3&lt;div&gt;(i &amp;gt; n1) и (j &amp;gt; n2)&lt;/div&gt;" style="strokeWidth=2;html=1;shape=mxgraph.flowchart.loop_limit;whiteSpace=wrap;" vertex="1" parent="WIyWlLk6GJQsqaUBKTNV-1">
          <mxGeometry x="160" y="1960" width="200" height="80" as="geometry" />
        </mxCell>
        <mxCell id="mYVZcuBY4w7BiPZU_aZP-41" value="" style="edgeStyle=none;curved=1;rounded=0;orthogonalLoop=1;jettySize=auto;html=1;fontSize=12;startSize=8;endSize=8;" edge="1" parent="WIyWlLk6GJQsqaUBKTNV-1" source="mYVZcuBY4w7BiPZU_aZP-37" target="mYVZcuBY4w7BiPZU_aZP-39">
          <mxGeometry relative="1" as="geometry" />
        </mxCell>
        <mxCell id="mYVZcuBY4w7BiPZU_aZP-37" value="comparator(L[i], R[j]) &amp;lt;= 0" style="rhombus;whiteSpace=wrap;html=1;" vertex="1" parent="WIyWlLk6GJQsqaUBKTNV-1">
          <mxGeometry x="160" y="2080" width="200" height="80" as="geometry" />
        </mxCell>
        <mxCell id="mYVZcuBY4w7BiPZU_aZP-47" value="" style="edgeStyle=none;curved=1;rounded=0;orthogonalLoop=1;jettySize=auto;html=1;fontSize=12;startSize=8;endSize=8;" edge="1" parent="WIyWlLk6GJQsqaUBKTNV-1" source="mYVZcuBY4w7BiPZU_aZP-39" target="mYVZcuBY4w7BiPZU_aZP-45">
          <mxGeometry relative="1" as="geometry" />
        </mxCell>
        <mxCell id="mYVZcuBY4w7BiPZU_aZP-39" value="data[k] := L[i]" style="rounded=0;whiteSpace=wrap;html=1;" vertex="1" parent="WIyWlLk6GJQsqaUBKTNV-1">
          <mxGeometry x="160" y="2200" width="200" height="80" as="geometry" />
        </mxCell>
        <mxCell id="mYVZcuBY4w7BiPZU_aZP-48" value="" style="edgeStyle=none;curved=1;rounded=0;orthogonalLoop=1;jettySize=auto;html=1;fontSize=12;startSize=8;endSize=8;" edge="1" parent="WIyWlLk6GJQsqaUBKTNV-1" source="mYVZcuBY4w7BiPZU_aZP-42" target="mYVZcuBY4w7BiPZU_aZP-46">
          <mxGeometry relative="1" as="geometry" />
        </mxCell>
        <mxCell id="mYVZcuBY4w7BiPZU_aZP-42" value="data[k] := R[j]" style="rounded=0;whiteSpace=wrap;html=1;" vertex="1" parent="WIyWlLk6GJQsqaUBKTNV-1">
          <mxGeometry x="400" y="2200" width="200" height="80" as="geometry" />
        </mxCell>
        <mxCell id="mYVZcuBY4w7BiPZU_aZP-43" value="" style="endArrow=none;html=1;rounded=0;fontSize=12;startSize=8;endSize=8;curved=1;entryX=1;entryY=0.5;entryDx=0;entryDy=0;" edge="1" parent="WIyWlLk6GJQsqaUBKTNV-1" target="mYVZcuBY4w7BiPZU_aZP-37">
          <mxGeometry width="50" height="50" relative="1" as="geometry">
            <mxPoint x="500" y="2120" as="sourcePoint" />
            <mxPoint x="380" y="2000" as="targetPoint" />
          </mxGeometry>
        </mxCell>
        <mxCell id="mYVZcuBY4w7BiPZU_aZP-44" value="" style="endArrow=classic;html=1;rounded=0;fontSize=12;startSize=8;endSize=8;curved=1;" edge="1" parent="WIyWlLk6GJQsqaUBKTNV-1" target="mYVZcuBY4w7BiPZU_aZP-42">
          <mxGeometry width="50" height="50" relative="1" as="geometry">
            <mxPoint x="500" y="2120" as="sourcePoint" />
            <mxPoint x="380" y="2000" as="targetPoint" />
          </mxGeometry>
        </mxCell>
        <mxCell id="mYVZcuBY4w7BiPZU_aZP-50" value="" style="edgeStyle=none;curved=1;rounded=0;orthogonalLoop=1;jettySize=auto;html=1;fontSize=12;startSize=8;endSize=8;" edge="1" parent="WIyWlLk6GJQsqaUBKTNV-1" source="mYVZcuBY4w7BiPZU_aZP-45" target="mYVZcuBY4w7BiPZU_aZP-49">
          <mxGeometry relative="1" as="geometry" />
        </mxCell>
        <mxCell id="mYVZcuBY4w7BiPZU_aZP-45" value="Inc(i)" style="rounded=0;whiteSpace=wrap;html=1;" vertex="1" parent="WIyWlLk6GJQsqaUBKTNV-1">
          <mxGeometry x="160" y="2320" width="200" height="80" as="geometry" />
        </mxCell>
        <mxCell id="mYVZcuBY4w7BiPZU_aZP-46" value="Inc(j)" style="rounded=0;whiteSpace=wrap;html=1;" vertex="1" parent="WIyWlLk6GJQsqaUBKTNV-1">
          <mxGeometry x="400" y="2320" width="200" height="80" as="geometry" />
        </mxCell>
        <mxCell id="mYVZcuBY4w7BiPZU_aZP-56" value="" style="edgeStyle=none;curved=1;rounded=0;orthogonalLoop=1;jettySize=auto;html=1;fontSize=12;startSize=8;endSize=8;" edge="1" parent="WIyWlLk6GJQsqaUBKTNV-1" source="mYVZcuBY4w7BiPZU_aZP-49" target="mYVZcuBY4w7BiPZU_aZP-55">
          <mxGeometry relative="1" as="geometry" />
        </mxCell>
        <mxCell id="mYVZcuBY4w7BiPZU_aZP-49" value="Inc(k)" style="rounded=0;whiteSpace=wrap;html=1;" vertex="1" parent="WIyWlLk6GJQsqaUBKTNV-1">
          <mxGeometry x="160" y="2440" width="200" height="80" as="geometry" />
        </mxCell>
        <mxCell id="mYVZcuBY4w7BiPZU_aZP-51" value="" style="endArrow=none;html=1;rounded=0;fontSize=12;startSize=8;endSize=8;curved=1;entryX=0.5;entryY=1;entryDx=0;entryDy=0;" edge="1" parent="WIyWlLk6GJQsqaUBKTNV-1" target="mYVZcuBY4w7BiPZU_aZP-46">
          <mxGeometry width="50" height="50" relative="1" as="geometry">
            <mxPoint x="500" y="2420" as="sourcePoint" />
            <mxPoint x="380" y="2310" as="targetPoint" />
          </mxGeometry>
        </mxCell>
        <mxCell id="mYVZcuBY4w7BiPZU_aZP-52" value="" style="endArrow=classic;html=1;rounded=0;fontSize=12;startSize=8;endSize=8;curved=1;" edge="1" parent="WIyWlLk6GJQsqaUBKTNV-1">
          <mxGeometry width="50" height="50" relative="1" as="geometry">
            <mxPoint x="500" y="2420" as="sourcePoint" />
            <mxPoint x="260" y="2420" as="targetPoint" />
          </mxGeometry>
        </mxCell>
        <mxCell id="mYVZcuBY4w7BiPZU_aZP-53" value="Да" style="text;html=1;align=center;verticalAlign=middle;whiteSpace=wrap;rounded=0;fontSize=16;" vertex="1" parent="WIyWlLk6GJQsqaUBKTNV-1">
          <mxGeometry x="250" y="2160" width="60" height="30" as="geometry" />
        </mxCell>
        <mxCell id="mYVZcuBY4w7BiPZU_aZP-54" value="Нет" style="text;html=1;align=center;verticalAlign=middle;whiteSpace=wrap;rounded=0;fontSize=16;" vertex="1" parent="WIyWlLk6GJQsqaUBKTNV-1">
          <mxGeometry x="354" y="2090" width="60" height="30" as="geometry" />
        </mxCell>
        <mxCell id="mYVZcuBY4w7BiPZU_aZP-59" value="" style="edgeStyle=none;curved=1;rounded=0;orthogonalLoop=1;jettySize=auto;html=1;fontSize=12;startSize=8;endSize=8;" edge="1" parent="WIyWlLk6GJQsqaUBKTNV-1" source="mYVZcuBY4w7BiPZU_aZP-55" target="mYVZcuBY4w7BiPZU_aZP-58">
          <mxGeometry relative="1" as="geometry" />
        </mxCell>
        <mxCell id="mYVZcuBY4w7BiPZU_aZP-55" value="Цикл 3" style="strokeWidth=2;html=1;shape=mxgraph.flowchart.loop_limit;whiteSpace=wrap;direction=west;" vertex="1" parent="WIyWlLk6GJQsqaUBKTNV-1">
          <mxGeometry x="160" y="2560" width="200" height="80" as="geometry" />
        </mxCell>
        <mxCell id="mYVZcuBY4w7BiPZU_aZP-58" value="&lt;font style=&quot;font-size: 26px;&quot;&gt;А&lt;/font&gt;" style="ellipse;whiteSpace=wrap;html=1;aspect=fixed;" vertex="1" parent="WIyWlLk6GJQsqaUBKTNV-1">
          <mxGeometry x="220" y="2680" width="80" height="80" as="geometry" />
        </mxCell>
      </root>
    </mxGraphModel>
  </diagram>
</mxfile>
